<?xml version="1.0" encoding="UTF-8" standalone="no"?><!DOCTYPE svg PUBLIC "-//W3C//DTD SVG 1.1//EN" "http://www.w3.org/Graphics/SVG/1.1/DTD/svg11.dtd"><svg width="100%" height="100%" viewBox="0 0 24 24" version="1.1" xmlns="http://www.w3.org/2000/svg" xmlns:xlink="http://www.w3.org/1999/xlink" xml:space="preserve" xmlns:serif="http://www.serif.com/" style="fill-rule:evenodd;clip-rule:evenodd;stroke-linejoin:round;stroke-miterlimit:2;"><rect id="in-preview-editing" x="0.005" y="0" width="24" height="24" style="fill:none;"/><path d="M4.005,3c-1.11,0 -2,0.9 -2,2l0,14c0,1.1 0.89,2 2,2l16,0c1.1,0 2,-0.9 2,-2l0,-14c0,-1.1 -0.89,-2 -2,-2l-16,0Zm0,4l16,0l0,12l-16,0l0,-12Z" style="fill-rule:nonzero;"/><path d="M14.822,8.5c-0.251,0 -0.501,0.097 -0.693,0.289l-0.701,0.699l2.09,2.09l0.699,-0.701c0.384,-0.384 0.384,-1.004 0,-1.389l-0.699,-0.699c-0.192,-0.192 -0.444,-0.289 -0.695,-0.289Zm-2.094,1.688l-5.223,5.223l0,2.09l2.09,0l5.223,-5.223l-2.09,-2.09Z" style="fill-rule:nonzero;"/></svg>